<?xml version="1.0" standalone="no"?><!DOCTYPE svg PUBLIC "-//W3C//DTD SVG 1.1//EN" "http://www.w3.org/Graphics/SVG/1.1/DTD/svg11.dtd"><svg t="1747192085509" class="icon" viewBox="0 0 1024 1024" version="1.1" xmlns="http://www.w3.org/2000/svg" p-id="2964" xmlns:xlink="http://www.w3.org/1999/xlink" width="200" height="200"><path d="M177.8688 403.5072h252.5696c44.1856 0 80.0768-35.9424 80.0768-80.0768V228.608c0-44.1856-35.9424-80.0768-80.0768-80.0768H177.8688c-44.1856 0-80.0768 35.9424-80.0768 80.0768v94.8224c0 44.1856 35.8912 80.0768 80.0768 80.0768zM159.232 228.608a18.6368 18.6368 0 0 1 18.6368-18.6368h252.5696a18.6368 18.6368 0 0 1 18.6368 18.6368v94.8224a18.6368 18.6368 0 0 1-18.6368 18.6368H177.8688a18.6368 18.6368 0 0 1-18.6368-18.6368V228.608z" fill="#4C4C4C" p-id="2965"></path><path d="M212.48 240.7424h182.4256v61.44H212.48zM805.7856 642.8672c-47.8208 0-86.7328 38.912-86.7328 86.7328 0 47.8208 38.912 86.7328 86.7328 86.7328 47.8208 0 86.7328-38.912 86.7328-86.7328-0.0512-47.872-38.912-86.7328-86.7328-86.7328z m0 111.9744c-13.9264 0-25.2928-11.3152-25.2928-25.2928s11.3152-25.2928 25.2928-25.2928 25.2928 11.3152 25.2928 25.2928-11.3664 25.2928-25.2928 25.2928z" fill="#4C4C4C" p-id="2966"></path><path d="M941.9264 601.9072a187.28448 187.28448 0 0 0-124.0576-58.5728V458.8032l22.1696-16.7424a77.312 77.312 0 0 0 30.5152-61.3376v-39.3216c0-42.3936-34.4576-76.8512-76.8512-76.8512h-1.1264V212.9408c0-7.6288-2.8672-15.0528-7.9872-20.6848l-39.936-43.8272c-15.5648-24.7296-47.9232-33.9968-74.3424-20.48l-34.5088 17.664 27.9552 54.7328 30.976-15.8208c0.7168 1.024 1.4848 1.9968 2.3552 2.8672l34.0992 37.4272v39.68h-136.1408c-16.9472 0-30.72 13.7728-30.72 30.72v74.0352c0 16.9472 13.7728 30.72 30.72 30.72h21.4016v52.9408l-77.1072 143.6672H475.0848l35.072-58.3168c2.8672-4.7616 4.4032-10.24 4.4032-15.8208V468.992c0-8.1408-3.2256-15.9744-9.0112-21.7088a30.8736 30.8736 0 0 0-21.7088-9.0112l-368.896 0.3072c-16.9472 0-30.72 13.7728-30.72 30.72v63.5392c0 16.9472 13.7728 30.72 30.72 30.72h9.0112c-71.8336 35.7376-94.9248 115.5072-96.6656 157.3376-0.3584 8.3456 2.7136 16.4864 8.4992 22.528a30.75584 30.75584 0 0 0 22.1696 9.472h5.2224c11.52 91.904 90.2144 163.2768 185.1904 163.2768 75.5712 0 143.2064-45.1072 172.032-114.9952h212.9408c30.1568 72.5504 103.0144 118.6304 181.7088 114.7904 94.7712-4.6592 170.8032-79.5136 176.896-174.1312 3.4304-52.1728-14.336-101.888-50.0224-139.9296z m-11.2128 135.9872c-4.0448 62.3616-56.1152 113.6128-118.5792 116.6848-52.992 2.6624-102.0928-28.5696-122.2144-77.568-9.3184-22.6304-31.3856-37.2736-56.2176-37.2736H420.5056c-24.6784 0-46.848 14.8992-56.4224 37.888a124.88192 124.88192 0 0 1-115.6096 77.1072c-69.0176 0-125.184-56.1664-125.184-125.184 0-1.9968 0.0512-3.9424 0.1536-5.888 0.4096-8.3968-2.6624-16.5888-8.448-22.6304a30.79168 30.79168 0 0 0-20.224-9.472c8.4992-28.672 28.8256-68.096 77.1072-80.5376a30.73024 30.73024 0 0 0 23.0912-29.7472v-48.4352c0-16.9472-13.7728-30.72-30.72-30.72h-18.4832v-2.1504l307.456-0.256v14.1312l-50.176 83.4048a40.26368 40.26368 0 0 0-0.5632 40.3968c7.1168 12.544 20.48 20.3264 34.8672 20.3264h114.7904c14.7968 0 28.3136-8.0896 35.328-21.1456l86.784-161.7408c2.4064-4.4544 3.6352-9.472 3.6352-14.5408V369.2544c0-16.9472-13.7728-30.72-30.72-30.72h-21.4016v-12.5952h167.9872c8.4992 0 15.4112 6.912 15.4112 15.4112v39.3216c0 4.8128-2.304 9.4208-6.144 12.288l-34.3552 25.9584a30.72 30.72 0 0 0-12.1856 24.5248v131.2768a30.76096 30.76096 0 0 0 34.4064 30.5152c5.2224-0.6144 10.1376-0.9216 14.9504-0.9216 34.9696 0 67.4304 14.08 91.3408 39.5776 23.8592 25.5488 35.7888 58.9312 33.536 94.0032z" fill="#4C4C4C" p-id="2967"></path><path d="M248.4736 642.8672c-47.8208 0-86.7328 38.912-86.7328 86.7328 0 47.8208 38.912 86.7328 86.7328 86.7328 47.8208 0 86.7328-38.912 86.7328-86.7328-0.0512-47.872-38.9632-86.7328-86.7328-86.7328z m0 111.9744c-13.9264 0-25.2928-11.3152-25.2928-25.2928s11.3152-25.2928 25.2928-25.2928 25.2928 11.3152 25.2928 25.2928-11.3664 25.2928-25.2928 25.2928z" fill="#4C4C4C" p-id="2968"></path></svg>